<svg xmlns="http://www.w3.org/2000/svg" viewBox="0 0 64 64">
  <defs>
    <linearGradient id="g" x1="0" y1="0" x2="1" y2="1">
      <stop offset="0" stop-color="hsl(217, 91%, 60%)"/>
      <stop offset="1" stop-color="hsl(271, 81%, 56%)"/>
    </linearGradient>
  </defs>
  <rect width="64" height="64" rx="16" fill="url(#g)"/>
  <path fill="#fff" d="M32 12c1.5 6-1 9.5-4.5 13.2C24 29 21 33 21 38.5 21 45.9 26.6 52 32 52s11-6.1 11-13.5c0-3.7-1.4-7-3.3-9.8-.9 1.9-2 3.4-3.7 4.6.3-6.6-1.6-16-4-21.3zm.3 26.1c1.9 2 2.9 3.7 2.9 5.8 0 2.6-1.4 4.6-3.2 4.6s-3.2-2-3.2-4.6c0-2.1 1-3.8 3.5-5.8z"/>
</svg>
